<?xml version="1.0" standalone="no"?>
<!DOCTYPE svg PUBLIC "-//W3C//DTD SVG 20010904//EN"
 "http://www.w3.org/TR/2001/REC-SVG-20010904/DTD/svg10.dtd">
<svg version="1.0" xmlns="http://www.w3.org/2000/svg"
 width="500.000000pt" height="500.000000pt" viewBox="0 0 500.000000 500.000000"
 preserveAspectRatio="xMidYMid meet">

<g transform="translate(0.000000,500.000000) scale(0.100000,-0.100000)"
fill="#000000" stroke="none">
<path d="M2395 3298 c-797 -4 -1526 -11 -1620 -15 l-170 -8 -3 -175 c-2 -96 0
-190 3 -209 l7 -34 1079 6 1079 7 5 -22 c3 -13 23 -138 44 -278 32 -202 43
-257 58 -267 13 -10 65 -13 213 -11 l195 3 3 40 c1 22 -15 150 -37 285 -21
135 -38 246 -37 247 1 1 149 4 329 5 321 3 328 3 332 -17 3 -11 23 -137 45
-280 31 -199 44 -263 57 -272 12 -9 70 -13 205 -13 174 0 189 1 208 20 14 14
18 28 14 47 -3 16 -38 230 -79 478 -59 361 -77 452 -91 462 -13 10 -66 13
-203 11 -102 -1 -838 -5 -1636 -10z"/>
<path d="M610 2690 c-14 -14 -18 -28 -14 -47 3 -16 38 -230 79 -478 60 -366
77 -452 92 -463 15 -12 74 -13 343 -8 179 3 991 9 1805 12 814 4 1483 8 1488
11 4 2 7 96 7 208 0 185 -2 205 -17 213 -10 4 -499 4 -1087 0 -588 -5 -1071
-6 -1074 -3 -3 3 -25 127 -48 276 -23 148 -48 277 -55 285 -10 12 -46 14 -213
12 l-201 -3 -3 -40 c-1 -22 15 -150 37 -285 21 -135 38 -246 37 -247 -1 -1
-149 -4 -329 -5 -321 -3 -328 -3 -332 17 -3 11 -23 137 -45 280 -31 198 -44
263 -57 273 -12 8 -70 12 -205 12 -174 0 -189 -1 -208 -20z"/>
</g>
</svg>
